<?xml version="1.0" encoding="iso-8859-1"?>
<!-- Generator: Adobe Illustrator 19.0.0, SVG Export Plug-In . SVG Version: 6.00 Build 0)  -->
<svg version="1.1" id="Capa_1" xmlns="http://www.w3.org/2000/svg" xmlns:xlink="http://www.w3.org/1999/xlink" x="0px" y="0px"
	 viewBox="0 0 512 512" style="enable-background:new 0 0 512 512;" xml:space="preserve">
<g>
	<g>
		<path d="M509.482,307.679L455.033,226l54.448-81.68c3.062-4.599,3.355-10.517,0.748-15.395S502.539,121,497.001,121h-106v135
			c0,24.814-20.186,45-45,45h-12.237c6.213,17.422,22.707,30,42.237,30h121c5.537,0,10.62-3.047,13.228-7.925
			C512.836,318.197,512.543,312.279,509.482,307.679z"/>
	</g>
</g>
<g>
	<g>
		<path d="M316.001,30h-166v241h196c8.291,0,15-6.709,15-15V76C361.001,51.186,340.816,30,316.001,30z"/>
	</g>
</g>
<g>
	<g>
		<path d="M165.001,482h-45V30c0-16.569-13.431-30-30-30c-16.569,0-30,13.431-30,30v452h-45c-8.291,0-15,6.709-15,15
			c0,8.291,6.709,15,15,15c130.128,0,16.685,0,150,0c8.291,0,15-6.709,15-15C180.001,488.709,173.292,482,165.001,482z"/>
	</g>
</g>
<g>
</g>
<g>
</g>
<g>
</g>
<g>
</g>
<g>
</g>
<g>
</g>
<g>
</g>
<g>
</g>
<g>
</g>
<g>
</g>
<g>
</g>
<g>
</g>
<g>
</g>
<g>
</g>
<g>
</g>
</svg>
